<?xml version="1.0" encoding="utf-8"?>
<svg xmlns="http://www.w3.org/2000/svg" xmlns:xlink="http://www.w3.org/1999/xlink" style="margin: auto; background: none; display: block; shape-rendering: auto;" width="64px" height="64px" viewBox="0 0 100 100" preserveAspectRatio="xMidYMid">
<g transform="rotate(0 50 50)">
  <rect x="47.5" y="15" rx="2.5" ry="3" width="5" height="20" fill="#007bff">
    <animate attributeName="opacity" values="1;0" keyTimes="0;1" dur="0.689655172413793s" begin="-0.6436781609195401s" repeatCount="indefinite"></animate>
  </rect>
</g><g transform="rotate(24 50 50)">
  <rect x="47.5" y="15" rx="2.5" ry="3" width="5" height="20" fill="#007bff">
    <animate attributeName="opacity" values="1;0" keyTimes="0;1" dur="0.689655172413793s" begin="-0.5977011494252873s" repeatCount="indefinite"></animate>
  </rect>
</g><g transform="rotate(48 50 50)">
  <rect x="47.5" y="15" rx="2.5" ry="3" width="5" height="20" fill="#007bff">
    <animate attributeName="opacity" values="1;0" keyTimes="0;1" dur="0.689655172413793s" begin="-0.5517241379310344s" repeatCount="indefinite"></animate>
  </rect>
</g><g transform="rotate(72 50 50)">
  <rect x="47.5" y="15" rx="2.5" ry="3" width="5" height="20" fill="#007bff">
    <animate attributeName="opacity" values="1;0" keyTimes="0;1" dur="0.689655172413793s" begin="-0.5057471264367815s" repeatCount="indefinite"></animate>
  </rect>
</g><g transform="rotate(96 50 50)">
  <rect x="47.5" y="15" rx="2.5" ry="3" width="5" height="20" fill="#007bff">
    <animate attributeName="opacity" values="1;0" keyTimes="0;1" dur="0.689655172413793s" begin="-0.4597701149425287s" repeatCount="indefinite"></animate>
  </rect>
</g><g transform="rotate(120 50 50)">
  <rect x="47.5" y="15" rx="2.5" ry="3" width="5" height="20" fill="#007bff">
    <animate attributeName="opacity" values="1;0" keyTimes="0;1" dur="0.689655172413793s" begin="-0.4137931034482758s" repeatCount="indefinite"></animate>
  </rect>
</g><g transform="rotate(144 50 50)">
  <rect x="47.5" y="15" rx="2.5" ry="3" width="5" height="20" fill="#007bff">
    <animate attributeName="opacity" values="1;0" keyTimes="0;1" dur="0.689655172413793s" begin="-0.36781609195402293s" repeatCount="indefinite"></animate>
  </rect>
</g><g transform="rotate(168 50 50)">
  <rect x="47.5" y="15" rx="2.5" ry="3" width="5" height="20" fill="#007bff">
    <animate attributeName="opacity" values="1;0" keyTimes="0;1" dur="0.689655172413793s" begin="-0.32183908045977005s" repeatCount="indefinite"></animate>
  </rect>
</g><g transform="rotate(192 50 50)">
  <rect x="47.5" y="15" rx="2.5" ry="3" width="5" height="20" fill="#007bff">
    <animate attributeName="opacity" values="1;0" keyTimes="0;1" dur="0.689655172413793s" begin="-0.2758620689655172s" repeatCount="indefinite"></animate>
  </rect>
</g><g transform="rotate(216 50 50)">
  <rect x="47.5" y="15" rx="2.5" ry="3" width="5" height="20" fill="#007bff">
    <animate attributeName="opacity" values="1;0" keyTimes="0;1" dur="0.689655172413793s" begin="-0.22988505747126434s" repeatCount="indefinite"></animate>
  </rect>
</g><g transform="rotate(240 50 50)">
  <rect x="47.5" y="15" rx="2.5" ry="3" width="5" height="20" fill="#007bff">
    <animate attributeName="opacity" values="1;0" keyTimes="0;1" dur="0.689655172413793s" begin="-0.18390804597701146s" repeatCount="indefinite"></animate>
  </rect>
</g><g transform="rotate(264 50 50)">
  <rect x="47.5" y="15" rx="2.5" ry="3" width="5" height="20" fill="#007bff">
    <animate attributeName="opacity" values="1;0" keyTimes="0;1" dur="0.689655172413793s" begin="-0.1379310344827586s" repeatCount="indefinite"></animate>
  </rect>
</g><g transform="rotate(288 50 50)">
  <rect x="47.5" y="15" rx="2.5" ry="3" width="5" height="20" fill="#007bff">
    <animate attributeName="opacity" values="1;0" keyTimes="0;1" dur="0.689655172413793s" begin="-0.09195402298850573s" repeatCount="indefinite"></animate>
  </rect>
</g><g transform="rotate(312 50 50)">
  <rect x="47.5" y="15" rx="2.5" ry="3" width="5" height="20" fill="#007bff">
    <animate attributeName="opacity" values="1;0" keyTimes="0;1" dur="0.689655172413793s" begin="-0.045977011494252866s" repeatCount="indefinite"></animate>
  </rect>
</g><g transform="rotate(336 50 50)">
  <rect x="47.5" y="15" rx="2.5" ry="3" width="5" height="20" fill="#007bff">
    <animate attributeName="opacity" values="1;0" keyTimes="0;1" dur="0.689655172413793s" begin="0s" repeatCount="indefinite"></animate>
  </rect>
</g>
<!-- [ldio] generated by https://loading.io/ --></svg>